<svg xmlns="http://www.w3.org/2000/svg" height="60" width="120"><g fill="#232e4a"><use href="#a"/><use href="#b"/><use href="#a" y="21.273"/><use href="#b" x="10.539"/><use href="#a" x="10.539"/><use href="#b" x="21.079"/><use href="#a" x="21.079"/><use href="#a" x="21.079" y="21.273"/><use href="#a" x="10.539" y="21.273"/><path d="M55.021 20.161H47.3v8.801h7.721c2.649 0 4.504-1.408 4.504-4.381 0-2.855-1.817-4.42-4.504-4.42zm2.687 12.321 5.412 11.186h-4.579L53.28 32.834H47.3v10.834h-3.898v-27.38h11.619c4.618 0 8.516 2.543 8.516 8.175 0 4.381-2.233 7.079-5.828 8.018m21.915-12.516c-4.618 0-7.153 3.872-7.153 10.013s2.536 10.013 7.153 10.013c4.655 0 7.191-3.872 7.191-10.013s-2.536-10.013-7.191-10.013zm0 24.133c-6.85 0-11.203-5.828-11.203-14.12s4.353-14.12 11.203-14.12c6.888 0 11.24 5.828 11.24 14.12s-4.352 14.12-11.24 14.12m24.904 0a12.1 12.1 0 0 1-9.424-4.42l2.839-2.855c1.779 1.995 4.39 3.247 6.888 3.247 3.709 0 5.488-1.33 5.488-3.99 0-2.112-1.551-3.168-5.98-4.537-5.601-1.721-8.288-3.168-8.288-8.057 0-4.733 3.86-7.627 8.742-7.627 3.596 0 6.32 1.369 8.667 3.716l-2.8 2.934c-1.665-1.76-3.558-2.621-6.169-2.621-3.104 0-4.429 1.565-4.429 3.403 0 1.917 1.211 2.855 5.791 4.263 5.223 1.643 8.478 3.364 8.478 8.253 0 4.928-3.028 8.292-9.803 8.292"/></g><defs><path id="a" d="M13.598 19.342c0 1.724-1.352 3.121-3.02 3.121s-3.02-1.398-3.02-3.121 1.352-3.121 3.02-3.121 3.02 1.398 3.02 3.121"/><path id="b" d="M13.598 29.979c0 1.724-1.352 3.121-3.02 3.121s-3.02-1.398-3.02-3.121 1.352-3.121 3.02-3.121 3.02 1.397 3.02 3.121"/></defs></svg>