<svg xmlns="http://www.w3.org/2000/svg" width="2500" height="2500" viewBox="0 0 256 256" preserveAspectRatio="xMidYMid" xmlns:v="https://vecta.io/nano"><path d="M254.251 124.862l-10.747-6.653a145.81 145.81 0 0 0-.306-3.13l9.236-8.615a3.686 3.686 0 0 0-1.225-6.171l-11.807-4.415a137.355 137.355 0 0 0-.925-3.048l7.365-10.229a3.698 3.698 0 0 0-2.407-5.814l-12.45-2.025-1.496-2.796 5.231-11.483a3.683 3.683 0 0 0-.288-3.59 3.678 3.678 0 0 0-3.204-1.642l-12.636.44a99.848 99.848 0 0 0-1.996-2.421l2.904-12.308a3.694 3.694 0 0 0-.986-3.466 3.698 3.698 0 0 0-3.464-.986l-12.305 2.901a106.192 106.192 0 0 0-2.426-1.996l.442-12.635a3.684 3.684 0 0 0-1.64-3.205 3.693 3.693 0 0 0-3.59-.29l-11.48 5.234a133.235 133.235 0 0 0-2.796-1.5l-2.03-12.452a3.7 3.7 0 0 0-5.812-2.407l-10.236 7.365-3.042-.922-4.415-11.809a3.69 3.69 0 0 0-2.745-2.336 3.707 3.707 0 0 0-3.424 1.106l-8.615 9.243a111.11 111.11 0 0 0-3.13-.306l-6.653-10.75a3.698 3.698 0 0 0-6.289 0l-6.653 10.75a110.4 110.4 0 0 0-3.133.306l-8.617-9.243a3.695 3.695 0 0 0-6.169 1.23l-4.414 11.809-3.045.922-10.234-7.365a3.687 3.687 0 0 0-3.579-.415 3.705 3.705 0 0 0-2.235 2.822l-2.03 12.452-2.796 1.5-11.481-5.235a3.686 3.686 0 0 0-3.588.291 3.684 3.684 0 0 0-1.642 3.205l.44 12.635a118.03 118.03 0 0 0-2.426 1.996l-12.305-2.9a3.71 3.71 0 0 0-3.466.985 3.694 3.694 0 0 0-.986 3.466l2.899 12.308-1.991 2.421-12.636-.44a3.721 3.721 0 0 0-3.204 1.641 3.696 3.696 0 0 0-.291 3.59l5.234 11.484-1.5 2.796-12.449 2.025a3.7 3.7 0 0 0-2.407 5.814l7.365 10.23-.925 3.047-11.808 4.415a3.702 3.702 0 0 0-1.225 6.171l9.237 8.614-.305 3.131-10.749 6.653A3.695 3.695 0 0 0 0 128.007a3.69 3.69 0 0 0 1.751 3.143l10.748 6.653.305 3.131-9.238 8.617a3.697 3.697 0 0 0 1.226 6.169l11.808 4.415.925 3.047-7.365 10.231a3.696 3.696 0 0 0 2.41 5.812l12.447 2.025 1.5 2.8-5.235 11.48a3.691 3.691 0 0 0 .291 3.59 3.684 3.684 0 0 0 3.204 1.641l12.63-.442 1.997 2.426-2.899 12.31a3.682 3.682 0 0 0 4.452 4.442l12.305-2.898 2.427 1.99-.44 12.639a3.694 3.694 0 0 0 5.229 3.492l11.481-5.231a105.49 105.49 0 0 0 2.796 1.499l2.03 12.445a3.692 3.692 0 0 0 2.235 2.825 3.706 3.706 0 0 0 3.579-.413l10.229-7.37 3.047.927 4.415 11.804a3.685 3.685 0 0 0 2.744 2.331 3.677 3.677 0 0 0 3.425-1.106l8.617-9.238 3.133.313 6.653 10.748a3.702 3.702 0 0 0 6.288 0l6.653-10.748 3.131-.313 8.615 9.238a3.68 3.68 0 0 0 3.424 1.106 3.69 3.69 0 0 0 2.744-2.331l4.415-11.804 3.048-.927 10.231 7.37a3.7 3.7 0 0 0 5.812-2.412l2.03-12.445 2.795-1.5 11.481 5.232a3.692 3.692 0 0 0 5.23-3.492l-.44-12.638a98.76 98.76 0 0 0 2.423-1.991l12.306 2.898c1.25.294 2.56-.07 3.463-.983a3.682 3.682 0 0 0 .986-3.459l-2.898-12.31 1.99-2.426 12.636.442a3.681 3.681 0 0 0 3.204-1.64 3.685 3.685 0 0 0 .289-3.592l-5.232-11.478 1.497-2.8 12.45-2.026a3.682 3.682 0 0 0 2.822-2.236 3.696 3.696 0 0 0-.415-3.576l-7.365-10.23.925-3.048 11.806-4.415a3.684 3.684 0 0 0 2.331-2.745 3.677 3.677 0 0 0-1.106-3.424l-9.235-8.617.305-3.13 10.748-6.654a3.69 3.69 0 0 0 1.751-3.143c0-1.281-.66-2.472-1.749-3.145zm-71.932 89.156c-4.104-.885-6.714-4.93-5.833-9.047s4.92-6.729 9.023-5.844c4.104.879 6.718 4.931 5.838 9.04s-4.926 6.73-9.028 5.851zm-3.652-24.699a6.929 6.929 0 0 0-8.23 5.332l-3.816 17.807c-11.775 5.344-24.85 8.313-38.621 8.313-14.086 0-27.446-3.116-39.43-8.688l-3.814-17.806a6.93 6.93 0 0 0-8.228-5.33l-15.72 3.376a93.272 93.272 0 0 1-8.128-9.58h76.49c.865 0 1.442-.157 1.442-.945v-27.057c0-.787-.577-.944-1.443-.944H106.8v-17.15h24.195c2.208 0 11.809.63 14.878 12.902.962 3.774 3.072 16.05 4.516 19.98 1.438 4.408 7.293 13.213 13.533 13.213h38.115c.433 0 .895-.049 1.382-.137a93.92 93.92 0 0 1-8.669 10.17l-16.082-3.456zm-105.79 24.327a7.6 7.6 0 0 1-9.029-5.843 7.62 7.62 0 0 1 5.836-9.047 7.61 7.61 0 0 1 9.028 5.85c.878 4.11-1.734 8.16-5.836 9.04zM43.86 95.986c1.703 3.842-.03 8.345-3.867 10.045s-8.328-.03-10.03-3.875.029-8.34 3.867-10.045a7.598 7.598 0 0 1 10.03 3.874zm-8.918 21.14l16.376-7.277a6.942 6.942 0 0 0 3.524-9.158l-3.372-7.626h13.264v59.788H37.973a93.7 93.7 0 0 1-3.566-25.672c0-3.398.183-6.756.535-10.056zm71.862-5.807V93.696h31.586c1.632 0 11.52 1.886 11.52 9.28 0 6.139-7.584 8.34-13.821 8.34h-29.285v.003zm114.792 15.862a93.48 93.48 0 0 1-.257 6.948h-9.603c-.961 0-1.348.632-1.348 1.573v4.41c0 10.38-5.853 12.638-10.982 13.213-4.884.55-10.3-2.045-10.967-5.034-2.882-16.206-7.683-19.667-15.265-25.648 9.41-5.975 19.2-14.79 19.2-26.59 0-12.74-8.734-20.765-14.688-24.7-8.352-5.506-17.6-6.61-20.095-6.61H58.279c13.467-15.03 31.719-25.677 52.362-29.551l11.706 12.28a6.923 6.923 0 0 0 9.799.226l13.098-12.528c27.445 5.11 50.682 22.194 64.073 45.633l-8.967 20.253a6.95 6.95 0 0 0 3.527 9.157l17.264 7.668a95.98 95.98 0 0 1 .455 9.3zM122.352 24.745c3.033-2.905 7.844-2.79 10.748.247 2.898 3.046 2.788 7.862-.252 10.765-3.033 2.906-7.844 2.793-10.748-.25a7.621 7.621 0 0 1 .252-10.762zm88.983 71.61a7.594 7.594 0 0 1 10.028-3.872c3.838 1.702 5.57 6.203 3.867 10.045a7.595 7.595 0 0 1-10.03 3.875c-3.833-1.703-5.565-6.2-3.865-10.048z"/></svg>